<svg xmlns="http://www.w3.org/2000/svg" width="189.06" height="35" viewBox="0 0 189.06 35"><rect class="svg__rect" x="0" y="0" width="97.07" height="35" fill="#419B5A" style="--darkreader-inline-fill: #347c48;" data-darkreader-inline-fill=""/><rect class="svg__rect" x="95.07" y="0" width="93.99" height="35" fill="#419B5A" style="--darkreader-inline-fill: #347c48;" data-darkreader-inline-fill=""/><path class="svg__text" d="M13.78 19.42L13.78 19.42L15.27 19.42Q15.27 20.15 15.75 20.55Q16.23 20.95 17.12 20.95L17.12 20.95Q17.90 20.95 18.29 20.63Q18.68 20.32 18.68 19.80L18.68 19.80Q18.68 19.24 18.28 18.94Q17.89 18.63 16.85 18.32Q15.82 18.01 15.21 17.63L15.21 17.63Q14.05 16.90 14.05 15.72L14.05 15.72Q14.05 14.69 14.89 14.02Q15.73 13.35 17.07 13.35L17.07 13.35Q17.96 13.35 18.66 13.68Q19.36 14.01 19.75 14.61Q20.15 15.22 20.15 15.96L20.15 15.96L18.68 15.96Q18.68 15.29 18.26 14.91Q17.84 14.54 17.06 14.54L17.06 14.54Q16.33 14.54 15.93 14.85Q15.53 15.16 15.53 15.71L15.53 15.71Q15.53 16.18 15.96 16.50Q16.40 16.81 17.39 17.10Q18.39 17.40 18.99 17.78Q19.60 18.16 19.88 18.65Q20.16 19.13 20.16 19.79L20.16 19.79Q20.16 20.86 19.34 21.49Q18.52 22.12 17.12 22.12L17.12 22.12Q16.20 22.12 15.42 21.77Q14.64 21.43 14.21 20.83Q13.78 20.22 13.78 19.42ZM24.31 19.16L24.31 19.16L24.31 13.47L25.79 13.47L25.79 19.18Q25.79 20.03 26.22 20.48Q26.66 20.93 27.50 20.93L27.50 20.93Q29.21 20.93 29.21 19.13L29.21 19.13L29.21 13.47L30.69 13.47L30.69 19.17Q30.69 20.53 29.82 21.32Q28.95 22.12 27.50 22.12L27.50 22.12Q26.04 22.12 25.17 21.33Q24.31 20.55 24.31 19.16ZM34.99 18.19L34.99 18.19L34.99 17.39Q34.99 16.19 35.42 15.27Q35.84 14.35 36.64 13.85Q37.44 13.35 38.49 13.35L38.49 13.35Q39.90 13.35 40.77 14.12Q41.63 14.89 41.77 16.29L41.77 16.29L40.29 16.29Q40.19 15.37 39.76 14.96Q39.32 14.55 38.49 14.55L38.49 14.55Q37.53 14.55 37.01 15.26Q36.49 15.96 36.48 17.33L36.48 17.33L36.48 18.09Q36.48 19.47 36.97 20.20Q37.47 20.92 38.42 20.92L38.42 20.92Q39.30 20.92 39.73 20.53Q40.17 20.14 40.29 19.22L40.29 19.22L41.77 19.22Q41.64 20.59 40.76 21.35Q39.88 22.12 38.42 22.12L38.42 22.12Q37.40 22.12 36.63 21.63Q35.85 21.15 35.43 20.26Q35.01 19.37 34.99 18.19ZM45.81 18.19L45.81 18.19L45.81 17.39Q45.81 16.19 46.24 15.27Q46.67 14.35 47.47 13.85Q48.27 13.35 49.31 13.35L49.31 13.35Q50.73 13.35 51.59 14.12Q52.45 14.89 52.59 16.29L52.59 16.29L51.11 16.29Q51.01 15.37 50.58 14.96Q50.15 14.55 49.31 14.55L49.31 14.55Q48.35 14.55 47.83 15.26Q47.31 15.96 47.30 17.33L47.30 17.33L47.30 18.09Q47.30 19.47 47.79 20.20Q48.29 20.92 49.24 20.92L49.24 20.92Q50.12 20.92 50.56 20.53Q51.00 20.14 51.11 19.22L51.11 19.22L52.59 19.22Q52.46 20.59 51.58 21.35Q50.70 22.12 49.24 22.12L49.24 22.12Q48.23 22.12 47.45 21.63Q46.67 21.15 46.25 20.26Q45.83 19.37 45.81 18.19ZM62.48 22L56.90 22L56.90 13.47L62.44 13.47L62.44 14.66L58.39 14.66L58.39 17.02L61.89 17.02L61.89 18.19L58.39 18.19L58.39 20.82L62.48 20.82L62.48 22ZM66.24 19.42L66.24 19.42L67.72 19.42Q67.72 20.15 68.21 20.55Q68.69 20.95 69.58 20.95L69.58 20.95Q70.36 20.95 70.75 20.63Q71.14 20.32 71.14 19.80L71.14 19.80Q71.14 19.24 70.74 18.94Q70.34 18.63 69.31 18.32Q68.28 18.01 67.67 17.63L67.67 17.63Q66.51 16.90 66.51 15.72L66.51 15.72Q66.51 14.69 67.35 14.02Q68.19 13.35 69.53 13.35L69.53 13.35Q70.42 13.35 71.12 13.68Q71.81 14.01 72.21 14.61Q72.61 15.22 72.61 15.96L72.61 15.96L71.14 15.96Q71.14 15.29 70.72 14.91Q70.30 14.54 69.52 14.54L69.52 14.54Q68.79 14.54 68.39 14.85Q67.99 15.16 67.99 15.71L67.99 15.71Q67.99 16.18 68.42 16.50Q68.86 16.81 69.85 17.10Q70.85 17.40 71.45 17.78Q72.06 18.16 72.34 18.65Q72.62 19.13 72.62 19.79L72.62 19.79Q72.62 20.86 71.80 21.49Q70.98 22.12 69.58 22.12L69.58 22.12Q68.66 22.12 67.88 21.77Q67.10 21.43 66.67 20.83Q66.24 20.22 66.24 19.42ZM76.47 19.42L76.47 19.42L77.96 19.42Q77.96 20.15 78.44 20.55Q78.92 20.95 79.81 20.95L79.81 20.95Q80.59 20.95 80.98 20.63Q81.37 20.32 81.37 19.80L81.37 19.80Q81.37 19.24 80.97 18.94Q80.57 18.63 79.54 18.32Q78.51 18.01 77.90 17.63L77.90 17.63Q76.74 16.90 76.74 15.72L76.74 15.72Q76.74 14.69 77.58 14.02Q78.42 13.35 79.76 13.35L79.76 13.35Q80.65 13.35 81.35 13.68Q82.05 14.01 82.44 14.61Q82.84 15.22 82.84 15.96L82.84 15.96L81.37 15.96Q81.37 15.29 80.95 14.91Q80.53 14.54 79.75 14.54L79.75 14.54Q79.02 14.54 78.62 14.85Q78.22 15.16 78.22 15.71L78.22 15.71Q78.22 16.18 78.65 16.50Q79.09 16.81 80.08 17.10Q81.08 17.40 81.68 17.78Q82.29 18.16 82.57 18.65Q82.85 19.13 82.85 19.79L82.85 19.79Q82.85 20.86 82.03 21.49Q81.21 22.12 79.81 22.12L79.81 22.12Q78.89 22.12 78.11 21.77Q77.33 21.43 76.90 20.83Q76.47 20.22 76.47 19.42Z" fill="#FFFFFF" style="--darkreader-inline-fill: #181a1b;" data-darkreader-inline-fill=""/><path class="svg__text" d="M110.05 15.44L108.49 15.44L108.49 13.60L112.43 13.60L112.43 22L110.05 22L110.05 15.44ZM117.17 17.80L117.17 17.80Q117.17 16.45 117.65 15.46Q118.12 14.46 118.96 13.95Q119.80 13.43 120.88 13.43L120.88 13.43Q121.94 13.43 122.78 13.95Q123.63 14.46 124.10 15.46Q124.57 16.45 124.57 17.80L124.57 17.80Q124.57 19.15 124.10 20.15Q123.63 21.14 122.79 21.65Q121.95 22.17 120.88 22.17L120.88 22.17Q119.80 22.17 118.96 21.65Q118.12 21.14 117.65 20.15Q117.17 19.16 117.17 17.80ZM119.56 17.80L119.56 17.80Q119.56 19.06 119.91 19.64Q120.27 20.22 120.88 20.22L120.88 20.22Q121.48 20.22 121.84 19.64Q122.19 19.06 122.19 17.80L122.19 17.80Q122.19 16.54 121.84 15.96Q121.48 15.38 120.88 15.38L120.88 15.38Q120.27 15.38 119.91 15.96Q119.56 16.54 119.56 17.80ZM128.88 17.80L128.88 17.80Q128.88 16.45 129.35 15.46Q129.82 14.46 130.66 13.95Q131.50 13.43 132.58 13.43L132.58 13.43Q133.64 13.43 134.49 13.95Q135.33 14.46 135.80 15.46Q136.28 16.45 136.28 17.80L136.28 17.80Q136.28 19.15 135.80 20.15Q135.33 21.14 134.49 21.65Q133.65 22.17 132.58 22.17L132.58 22.17Q131.50 22.17 130.66 21.65Q129.82 21.14 129.35 20.15Q128.88 19.16 128.88 17.80ZM131.26 17.80L131.26 17.80Q131.26 19.06 131.61 19.64Q131.97 20.22 132.58 20.22L132.58 20.22Q133.18 20.22 133.54 19.64Q133.89 19.06 133.89 17.80L133.89 17.80Q133.89 16.54 133.54 15.96Q133.18 15.38 132.58 15.38L132.58 15.38Q131.97 15.38 131.61 15.96Q131.26 16.54 131.26 17.80ZM141.75 23.20L139.72 23.20L143.68 11.90L145.71 11.90L141.75 23.20ZM150.26 15.44L148.70 15.44L148.70 13.60L152.63 13.60L152.63 22L150.26 22L150.26 15.44ZM157.38 17.80L157.38 17.80Q157.38 16.45 157.85 15.46Q158.32 14.46 159.17 13.95Q160.01 13.43 161.08 13.43L161.08 13.43Q162.15 13.43 162.99 13.95Q163.83 14.46 164.31 15.46Q164.78 16.45 164.78 17.80L164.78 17.80Q164.78 19.15 164.31 20.15Q163.83 21.14 162.99 21.65Q162.16 22.17 161.08 22.17L161.08 22.17Q160.01 22.17 159.17 21.65Q158.32 21.14 157.85 20.15Q157.38 19.16 157.38 17.80ZM159.77 17.80L159.77 17.80Q159.77 19.06 160.12 19.64Q160.47 20.22 161.08 20.22L161.08 20.22Q161.69 20.22 162.04 19.64Q162.40 19.06 162.40 17.80L162.40 17.80Q162.40 16.54 162.04 15.96Q161.69 15.38 161.08 15.38L161.08 15.38Q160.47 15.38 160.12 15.96Q159.77 16.54 159.77 17.80ZM169.08 17.80L169.08 17.80Q169.08 16.45 169.55 15.46Q170.03 14.46 170.87 13.95Q171.71 13.43 172.79 13.43L172.79 13.43Q173.85 13.43 174.69 13.95Q175.53 14.46 176.01 15.46Q176.48 16.45 176.48 17.80L176.48 17.80Q176.48 19.15 176.01 20.15Q175.53 21.14 174.70 21.65Q173.86 22.17 172.79 22.17L172.79 22.17Q171.71 22.17 170.87 21.65Q170.03 21.14 169.55 20.15Q169.08 19.16 169.08 17.80ZM171.47 17.80L171.47 17.80Q171.47 19.06 171.82 19.64Q172.18 20.22 172.79 20.22L172.79 20.22Q173.39 20.22 173.74 19.64Q174.10 19.06 174.10 17.80L174.10 17.80Q174.10 16.54 173.74 15.96Q173.39 15.38 172.79 15.38L172.79 15.38Q172.18 15.38 171.82 15.96Q171.47 16.54 171.47 17.80Z" fill="#FFFFFF" x="108.07" style="--darkreader-inline-fill: #181a1b;" data-darkreader-inline-fill=""/></svg>